<?xml version="1.0" encoding="UTF-8"?>
<svg id="_图层_1" data-name=" 图层 1" xmlns="http://www.w3.org/2000/svg" viewBox="0 0 1055.39 916.05">
  <path d="M1018.8,388.73c-.95-7.73-6.87-5.44-11.23-7.07-7.87-4.82-31.39-11.23-36.26-.9,9.77.72,27.87-1.59,33.1,8.4,1.69,1.06,4.12-2.57,5.85.74-.55,2.8-6.54,5.81-7.09,7.51,7.93,37.21-56.53,98.09-82.76,121.08-11.03,8.9-24.6,16.03-35.03,25.58-37.43,39.75-77.31,89.34-127.73,113.57-14.7,6.8-25.87,7.95-40.12,18.09-52.96,37.69-103,76.85-167.65,94.65-18.27,5.03-36.99,4.89-55.35,9.24-76.83,14.98-135.95,98.43-209.92,115.46-18.47-2.22-23.21-.97-38.54,8.99-33.98,15.94-70.2,2.43-103-6.47-27.95,1.36-61.18,2.8-84.56-15.98-55.78-34.36-23.39-77.85,10.58-108.23,1.44-3.2,12.36-1.44,11.36-4.48-1.63-4.98-19.44,1.77-21.94,5.47h-.01c-26.38,21.9-70.83,82.99.02,113.33,25.19,16.97,55.84,14.55,84.55,14.78,45.03,16.08,79.13,21.19,122.29-3.53,93.91,2.59,157.77-119.27,268.71-120.03,82.1-11.44,151.07-82.75,223.02-115.78,46.67-20.24,79.3-59.51,113.63-94.79,50.2-51.63,129.96-91.28,139.8-169.67l8.28-9.97Z"/>
  <path d="M166.35,693.97c7.48,3.62,24.79,1.78,25.02,10.94,1.41,1.06,6.3-3.61,6.01-5.34-.68-3.97-21.94-8.24-26.7-9.93-41.04-14.61-76-40.47-112.15-63.93v4.87c33.87,22.68,68.85,50,107.83,63.39Z"/>
  <polygon points="58.51 625.71 58.51 625.71 58.51 625.71 58.51 625.71"/>
  <path d="M58.53,625.71h-.01s0,0,.01,0h0Z"/>
  <path d="M421.11,150.43c-.52-8.29-.41-15.53,6.64-21.35,9.51-7.84,18.23,2.5,25.29-2.13,10.76-20.87,20.24-30.27,38.36-44.83,15.92-14.46,12.52-14.8,33.98-23.66,1.85-.77,4.25.14,3.55-3.06h0v-.02s31.22-30.6,41.3-28.73c10.09,1.87,65.93,31.81,65.93,31.81,5.77,7.45,11.99,16.37,20.34,21.07,11.46,6.46,27.31,10.55,39.62,16.43,22.25,8.95,49.75,33.03,69.2,43.5h-.01c-13.87-18.72-47.23-35.49-67.97-47.17-11.26-5.62-29.76-10.86-39.15-16.9-19.48-21.53-28.74-24.21-68.56-45.51-21.35-9.83-20.21-10.46-41.26,3.65-10.47,7.83-21.34,17.81-27.98,22.71-18.34,2.29-52.31,38.15-64.36,52.39-1.69,2.43-5.92,12.22-7.51,13.2-3.8,2.33-9.88-.85-13.89-.59-14.03.95-23.57,21.48-14.76,32.87,3.29.44,1.34-2.06,1.23-3.68Z"/>
  <path d="M1009.15,444.67c-24.86-1.23,43.08,21.51,46.24,25.06v-6.09c-14.08-6.04-31.58-15.42-46.24-18.96Z"/>
  <path d="M704.42,480.14c14.42-20.1,34.64-52.2,60.34-57.87,7.28-.8,21.9,2.89,26.6-1.13,6.53-27.97,24.16-31.55,45.32-46.4.9-.71,5.59-4.96,4.26-6.08-8.47-1.46-27.97,15.11-35.74,19.69-11.1,8.37-15.44,16.75-20.29,29.67-34.27-7.4-59.13,25.97-77.38,50.47-7.03-6.76-14.47-13.39-24.51-15.71l.77-12.65-4.19-1.96c-5.33,10.31-3.51,20.87-17.71,23.77-5.92,1.22-20.24-.22-26.01-2.16-2.96-1-2.79-4.01-3.53-4.46-.94-.59-5.23,1.06-7.09-.17,1.71-2.58,24.72-16.04,16.47-17.03-23.87,18.93-22.72,13.26-49.69,20.99-10.47,4.21-19.65,12.96-28.92,17.39-38.21,16.2-93.22,7.45-127.97-14.02,3.91,6.69,11.6,8.93,18.07,12.37.15,30.77-18.95,59.39-38.97,81.31-12.64-6.67-25.84,2.55-31.73,13.96-2.89,5.61-4.2,16.58-6.56,20.24-16.16,12.3-36.78,22.78-57.37,25.5-1.19.16-15.6-.6-11.41,2.58,24.74,1.38,47.67-9.68,67.63-23.15l1.72,12.68,3.75.72c-.69-14.3,5.85-45.42,21.87-49.43,7.87-1.97,5.23,1.17,7.39,2.56,1.35.88,3.17-.74,4.85-.07,2.83,1.15,4.23,6.89,9.17,6.86,4-.02,14.2-8.52,20.11-7.45-.35-9.36-18.84,2.13-19.49,1.23-2.65-8.19,9.7-21.86,14.03-28.11,1.66-1.71,3.92.48,5.51-1.62,3.36-8.75,7.04-24.07,18.16-29.45,6.98-2.19,8.75,1.61,12.92,1.86,2.12.13,4.68-1.94,6.67-.67,1.4.89,1.62,3.78,2.79,5.22.84,1.04,4.11,1.73,4.25,3.39-2.61,3.6-2.8,10.59-.27,15.16,3.42,6.2,14.62,5.59,12.11,2.51-9.24-2.28-11.19-12.98-4.29-18.89v-1.8c-10.41-1.51-16.54-23.93-2.01-23.08,3.95.23,23.58,6.06,25.17,4.78l-1.22-3.63c12.8-.44,25.47-2.71,37.77-6.09l-16.86,19.09c-.38,2.41-7.53,12.82-1.43,12.59,4.4-18.4,37.27-40.13,52.55-49.23,11.99-5.71,24.94-7.6,38.17-6.92.39,5.5,9.9,6.73,14.84,7.24,10.8,1.39,21.06-4.37,27.67-.06,3.58-.21,8.15-7.84,9.93-7.97,37.24,18.38,13.54,20.53,2.52,36.26,3.46,49.78-21.65,4.15-38.16,70.3-.76,3.17.37,7.68-1.41,10.48-22.36,9.22-24.63,39.2-43.39,55.63-4.56,4.01-12.14,6.58-15.84,9.74-3.71,3.16-7.45,9.73-12.15,13.44-24.16,19.07-59.45,17.76-42.05-20.71-3.12-.72-2.13.83-3.16,2.28-7.22,10.23-8.74,22.6.72,31.82-2.4.66-3.21-2.46-5.28-2.24-1.72.18-3.61,2.9-6.12,2.16-9.23-9.59-8.64-20.78-3.21-32.19,2.81-7.06-12.52-1.4-9.79,17.66-3.32.63-3.63-3.06-5.31-4.5-15.58-5.55,2.61-34.23,11.51-39.89,6.24-1.45,5.19-1.64,8.43-7.41,3.31-5.02,14.17-9.5,13.41-15.22-11.55-1.11-15.06,12.46-20.67,17.7-16.07,7.7-30.5,28.83-21.98,46.88-6.84-1.28-10.91-7.15-17-10.41-9.99-5.34-22.94-8.23-34.18-9.09,5.17-20.48,20.74-42.88,43.4-44.93,9.21-.83,17.25,2.86,26.06-.17l-7.29-4.23,14.69-38.79c-2.72-1.85-6.39-6.19-9.85-3.9-3.46,2.29,1.74,4.31,2.28,6.37,1.37,5.24-9.97,28.45-10.97,35.52-32.92-4.29-58.1,18.44-64.58,49.97-36.64-.28-71.41,33.79-58.34,70.85-1.3-46.92,33.82-74.62,79.5-63.02,6.07,1.54,30.06,11.69,27.69,19.6-1.1.98-5.87,5.24-6.62,5.3-2.17.17-10.6-7.09-15.25-4.52.15,4,4.79,5.09,7.3,7.92,21.53,29.92-13.56,47.7-40.2,34.74-3.05,2.8,12.4,7.12,12.18,9.73-6.26,4.02-17.89-8.93-18.33-1.28-2.51,1.88-2.22-2.12-3.18-2.39-6.09-1.68-35.52,9.92-36.98,8.54l3.64-7.3c-2.68-.82-5.27,2.36-7.41,1.9-3.22-.68-5.18-6.23-8.95-5.64l-4.4,5.53-10.92,5.51,14.22-4.58,10.13,4.58c-17.26,1.45-31.08,11.33-46.3,18.28l3.14-20.72c-.91-1.47-26.58-9.51-31.15-15.24-2.3-2.88-.5-5.98-1.86-9.1-1.61-3.66-9.96-7.14-10.34-12.89,2.22-11.16,17.65-20.14,27.81-23.86-.29-10.24,1.39-23.29,12.38-27.22-11.6-7.3-10.4,9.3-18.37,9.88-4.23,21.61-31.29,14.94-39.71-.62-8.3,1.57-15.48,6.63-24.13,7.24-11.26.8-23.33-4.24-23.43-17.05,2.05-13.14,16.01-27.23,30.08-25.67-6.95-7.26-21.18,1.9-26.86,7.87-8.82,9.28-4.91,12.53-21.43,13.91-17.32,1.45-33.74-5.12-50.41-8.39,11.53-6.77,46.91,18.68,49.95-8.52-4.17-.44-4.63,5.24-7.34,6.67-12.91,4.08-50.21-1.82-55.2-17.87-2.51-9.65,1.83-13.97,1.49-19.93-10.51-18.03,1.09-29.31,15.95-40.18-15.52,2.6-25.72,18.79-24.27,34.03.95,15.67-3.89,30.03,9.65,40.92-6.78.44-30.6-15.12-32.88-9.76,32.51,15.31,67.75,34.2,104.79,26.83,1.35,25.88,33.5,26.36,51.17,15.84,5.51,12.94,20.43,14.27,32.93,13.42l-12.77,9.74c-1.49-3.44-4.77-4.77-6.7-6.79-2.09-6.74-4.31-4.2-10.03-4.45-15.51-6.98-30.86,2.93-29.96,20.35.01,2.9,2.58,7.51,1.08,9.8-11.69,7.98-29.04,19.82-33.04,34.69-.82.76-7.07-3.5-8.43-4.79,3.66-.42,8.17.78,8.49-4.86-4.08,2.27-8.74-3.99-10.34-3.66-4.39.91.12,6.83,1.8,8.52-19.26,2.24-23.9,4.08-31.24,23.25-19.6-5.31-36.94-7.75-56.13.89-4.11,1.85-32.03,20.18-28.4,24.61,29.73-27.22,48.5-29.72,86.9-20.77,6.31,15.08,15.31,17.7,30.07,10.99-1.11-7.34-9.73-.26-15.83-3.05-3.27-1.5-7.14-9.74-7.35-13.38-.2-3.34,4.83.54,7.32-1.85l-7.28-3.02c3.19-7.85,17.48-16.83,23.97-8.8,4.14,5.13-3.45,26.36,2.8,33.76-14.66-.62-33.43,3.58-42.65,15.84,26.16-18.68,55.28-9.27,84.09-3.63-3.5,12.07,10.65,66.02,21.6,69.23,4.97,1.45,19.72-1.94,18.61-9.52-3.13-1.02-4.52,2.99-5.81,3.56-19.85,8.76-12.44-19,2.82-19.46,15.11-.46,6.05,13.64,10.94,14.66,2.69.57,4.03-3.45,4.3-5.41,2.04-15.17-3.89-39.14-10.54-52.94-12.13-15.48-3.94-10.82,8.8-16,2.53-.17.22,3.88,6.59,1.9,11.99-3.72,30.52-17.03,43.01-22.8,10.13-4.68,62.94-19.22,71.82-17.78,7.56,1.23,12.5,6.76,21.9,1.79,6.64-3.53,4.5-1.63,11.05-3.53,5.84-1.69,21.26-12.7,24.57-18.07,4.92-7.97.82-13.09,2.5-18.14,1.06-3.17,14.63-20.12,17.22-20.61,14.21,1.84,4.03,23.52,29.67,18.67,1.57-.73,2.64-3.62,4.42-3.97,26.61,8.3,42.91-7.96,59.55-24.66,39.33-19.43,25.43-47.16,59.49-67.37,1.01-2.33-1.51-2.88-1.13-5.72,1.02-7.63,9.43-28.4,13.66-35.24,7.93-12.83,15.54-7.54,26.79-13.47,1.5-1.89-1.68-3.24-1.67-5.3.01-1.6,1.94-4.08,2.11-6.42-1.69-17.87,2.87-17.48,14.69-29.18ZM479.22,491.3c-.77,3.34-.57,7.02.95,10.09-5.28-1.57-10.03-6.01-15.83-3.64.59-6.31,12.08-5.36,10.96-12.18-7.93-1.55-11.21,1.89-17.05,6.08v-14.61l25.58,6.09c-.13,3.52-3.78,4.53-4.61,8.17ZM301.04,704.92s21.78,9.9,21.79,9.88l.15,7.18-25.59,2.43c2.25-6.44,4.52-12.44,3.66-19.49ZM260.81,654.96c.07,2.19-.8,9.19,1.85,9.75,4.8,1.01,1.08-10.2,6.11-9.84,8.63,3.42,14.67,10.12,8.97,19.44-10.76-2.47-18.98.87-29,2.46-2.95-8.86.82-22.52,12.07-21.82ZM244.07,758.21l-31.48-4.46c-16.77-25.79,11.49-58.5,34.26-69.52,3.34-.74.93,4.25,2.39,3.62,3.38-2.06,5.51-8.03,9.07-9.21,5.85-1.94,21.05-1.08,26.44,2.41h.01c20.07,16.49,5.99,40.16-.13,59.22-6.25,3.77-14.66,11.14-15.21-1.18,3.91.4,8.19-1.84,8.48-6.14l-10.1,1.23c-3.51-3.22-5.02-5.75-4.61-10.9-5.29-3.07-15.53,3.9-10.01,8.51,4.24,3.55,11.36,3.36,11.31,12.11-11.46-1.94-12.35,10.53-20.41,14.31ZM293.72,807.28c-14.86-4.53-19.79,1.4-26.68,12.88-.66,1.08.62,2.4-2.55,1.74-6.19-18.09-20.04-48.95-9.57-67.44,21.3-26.93,38.01,38.31,38.79,52.81ZM324.19,736.59c-6.73.26-14.67,9.36-20.13,10.99-2.92-7.62-14.75,3.43-21.29,1.19l12.77-9.4c20.5,12.19,12.57-6.57-3.01-2.78-5.22-7.11,25.45-9.99,29.24-9.75h-.01c.28,2.04-.51,4.67-.02,6.53.34,1.29,3.68,0,2.46,3.21Z"/>
  <path d="M285.47,319.54c-.6,1.58-.27,3.51-.3,5.18-64.61-15.57-46.96,53.85-79.16,74.93-2.55,2.99-5.08,9.98-6.44,11.29-2.91,2.8-13.11-.63-10.06,6.41h6.69c-1.9,8.03-4.1,14.72-3.64,23.13,3.71.57,2.01-.88,2.39-3.06,2.6-16.82,9.63-34.75,24.96-43.3,15.1-30.12,17.57-88.67,68.33-63.33,2.97-1.79.26-3.78.46-6.67,4.73-11.86,29.69-45.1,44-46.92-1.18,16.99,1.28,33.79,4.78,50.39-.82,2.52-7.74,3.08-10.49,4.2-3.32,1.35-16.32,8.65-18.01,8.65-2.15.02-4.3-1.72-6.47-2.1-1.82-.32-3.68.68-5.18.27-2.3-.65-10.75-8.18-12.71-7.81-7.02,4,13.15,14.6,12.55,18.9,0,1.24-4.35,2.88-3.44,5.46,5.25-.48,7.59-5.7,12.5-7.59,2.1-.8,6.34-.73,6.79-1.13.45-.4.22-2.72,1.4-4.02,2.71-2.97,27.65-10.87,31.75-9.86,6.15,1.51,8.31,12.86,10.47,17.87,12.92,1.6,28.96,6.8,35.5,19.06,1.49,2.77,3.29,14.7,4.57,14.94,3.21.61,2.12-5.73,5.45-4.89.43-2.35-2.78-.52-3.53-1.28.46-6.44-4.18-12.16-7.41-16.39-1.61-3.39,7.62.58,6.1-3.63-.98-2.69-12.89-4.96-.61-14.02l10.35-6.09c-10.46-1.4-22.85,5.48-21.94,17.05l-21.88-7.96c-5.09-9.24-5.02-18.46-18.33-18.85l3.66-10.96c-5.39-.9-6.17,5.12-9.73,7.3-4.92-40.72-2.43-84.71,14.4-122.7,11.94-16.77,2.22-15.53,6.18-30.13,7.12-4.4,17.17,3.81,23.73,1.54l5.03-8.32c3.92,1.51,5.73,6.64,10.36,6.05l-.02.04c2.23-2.24-9.67-16.42-16.42-8.5-1.54,1.8-1.69,5.86-3,6.75-1.68,1.15-17.92-5.61-22.55.59-4.23,5.66.74,11.87-.93,17.34-15.79,24.38-20.53,55.11-23.44,83.82-18.77,4.43-38.99,31.97-46.7,48.36Z"/>
  <path d="M394.75,280.22c2.35-20.05,5.13-55.11-7.74-71.37-13.76-15.26-25.69,7.53-29.57,19.29-7.3,22.15-4.79,39.76-6.44,61.82-.48,6.41-4.35,13.78-2.44,21.32l4.51-8.26c.13-12.02,7.18-16.78,18.2-18.48,4.18-.63,7.39,1.86,12.63-2.51-2.04-3.79-14.82-1.76-18.62-.94-4.06.88-8.51,4.67-11.83,7.04.4-18.36,1.01-37.43,6.42-55.1,2.74-8.92,14.54-37.09,24.95-19.53,15.14,38.34-.97,92.06-5.78,131.91l6.09-2.12c5.64-18.42,4.93-39.13,11.94-56.58h-.01c.75-1.64-2.13-3.69-2.32-6.5Z"/>
  <path d="M781.51,371.95c-4.81,11.37-4.73,32.97-22.27,31.98-1.22,10.12,14.63.9,17.73-2.39,6.47-6.84,6.47-19.05,9.7-26.86,7.75-18.75,18.49-19.43,30.45-31.7,12.29-18.9,28.8-23.95,38.59-45.5,7.29-15.04,10.45-29.14,10.09-45.97,1.23-1.76,7.06-.85,10.13-2.06,1.08-.43,11.09-8.14,12.08-9.25h-.01c18.94-20.23-19.19-32.35-33.68-25.78,0,3.06,29.04,2.93,32.27,12.89,3.03,9.37-19.85,18.79-25.61,23.05,2.75,64.58-50.23,77.96-79.48,121.59Z"/>
  <path d="M771.44,308.26c-6.77,23.03-12.59,51.28-34.11,65.19l-1.11-7.18h.01v-.06c12.31-5.79,14.4-22.46,7.41-32.64,9.37-18.12-8.74-33.8-27.02-29.64l11.25,1.52c12.2,3.06,17.43,17.84,9.4,27.11,10.52,13.31,5.6,23.41-7.17,32.98-1.35,3.35,2.21,2.8,2.39,3.72,1.19,5.76-11.58,14.43-16.81,14.88-5.23.45-20.4-10.13-28.31-5.86-.94-3.55,3.83-6.34,3.71-9.12-4.51-1.12-1.92-5.57-2.51-9.15-7.19,1.67-6.91,11.87-8.54,17.43-.46,1.57-2.91.06-2.41,2.06,19.03-.62,46.83,2.41,29.25,27.12-5.87,9.35-20.41,16.55-24.38,26.52,0,0,11.82-7.65,11.82-7.65,9.02-10.92,24.46-21.68,22.44-37.27.29-.41,8.92-4.3,9.44-4.4,32.99-.81,44.49-53.1,47.68-79.83-2.49.49-1.96,2.61-2.41,4.28Z"/>
  <path d="M464.9,206.49c2.54,1.71,18.9,13.98,18.9,15.2-5.13,1.73-5.01,11.18-6.34,12.53-2.12,2.15-11.23-.65-13.82,7.52-2.11,6.64,2.33,12.43,4.33,18.34-22.73-12.48-21.28,29.4-13.98,41.43,0,0-.48-22.39-.48-22.39-.18-3.05,4.64-17.28,6.72-17.87,4.63-1.3,3.91,2.04,5.87,3.71,8.61,7.03,15.23,17.32,18.85,27.51,1.71,1.19,4.43.49,4.82-1.39-.17-6.25-12.49-25.68-19.07-28.81-.42-.72-2.9-13.44-2.84-14.98.48-11.32,12.79-5.79,15.36-10.32.71-26.5,38.87-15.39,55.43-10.99.62-3.45-.82-2-2.67-2.74-18.85-8.88-29.89-6.22-47.36-6.27-1.34-.44-13.94-11.04-16.99-12.91h0s.02.01.02.01h0v-.02l6.07-1.23c-.62-7.32-40.65-34.06-48.73-36.53l42.53,37.66c-16.4-10.05-37.95-20.24-57.14-21.85,15.37,5.22,37.16,15.37,50.52,24.4Z"/>
  <path d="M400.68,442.23c.4,2.47-9.92,14.13-11.53,18.71-1.61,4.58-6.02,23.05.84,23.39-.66-12.99,5.98-28.68,18.27-34.11-.01,6.69.21,8.11,4.72,12.99l.15,1.58c-4.97-.3-19.93,21.44-18.25,23.19,3.48.74,16.33-19.33,20.1-23.12,6.53,6.37,16.6,11.71,24.97,5.46-9.71-.33-25.76-3.47-25.66-15.55-.45-1.12-2.21-.88-2.39-1.72-.63-3.02,2.34-7.23-.28-9.82-2.35-2.34-13.05-6.64-17.33-10.09-19.11-15.38-18.32-36.11,11.23-30.7,2.43.44,2.18-1.51,1.54-2.16h0s.01-.01.01-.01c-3.9-3.92-20.84-1.76-25.61,1.79-15.97,11.87,7.78,34.44,19.22,40.17Z"/>
  <path d="M81.15,517.28c-1.43,1.82-7.76,10.41-1.93,9.7,14.27-32.63,82.36-19.2,105.4-2.4,11.95,9.95,4.39,12.59,3.22,23.87-.96,9.29,1.77,16.09,12.01,16.37-1.16,8.71,1.52,22.58,13.2,17.42,2.46-1.1,4.25-10.36.88-8.92-10.14,15.18-8.23-6.51-6.73-13.42-22.72,2.3-9.69-15.8-10.09-24.79-10.79-33.16-93.67-39.97-115.96-17.82Z"/>
  <path d="M554.53,222.34c2.29,5.06,17.59,3.75,23.63,6.2,31.46,10.03,81.08,34.81,89.69,69.35,18.34-3.06-15.78-34.03-21.36-38.96-8.59-7.16-19.45-14.09-29.81-18.33l7.3-3.66c1.34-1.68-7.24-3.38-9.02-3.25-3.13.22-3.06,2.78-3.42,3-2.59,1.3-14.37-5.18-18.07-6.39-5.39-1.77-36.06-10.03-38.94-7.96Z"/>
  <path d="M839.69,355.17c3.68.02,4.46-5.03,7.02-7.33,24.39-19.15,46.72,11.66,62.46,27.47,7.35.91,33.42-5.78,32.9,5.45,6.39,1.23,6.64-7.62,1.52-9.47-8.54-3.1-24.88.55-30.77-2.13-3.21-1.45-12.22-13.63-16.38-17.14h.01c-17.82-15.04-46.61-24.6-56.76,3.14Z"/>
  <path d="M746.79,249.22c-26.67,13.28-59.01,69.35-46.63,98.63,1.4-38.21,21.03-91.67,63.96-97.49.38-6.45-14.24-2.49-17.33-1.13Z"/>
  <path d="M359.11,356.83h0c-17.09-7.86-18.22-.27-19.4,15.69-.72,3.4-3.78,6.72-3.32,10.68,6.52-6.04,7.54-16.11,9.84-24.27,3.62-3.11,13.89,5.8,15.6,9.18.98,1.94,4.9,15.89,5.03,18.18.95,16-15.36,28.36-28.03,15.19-.94,4.27,4.78,7.56,8.19,8.25,13.74,2.79,25.88-9.77,25.58-23.15-.21-8.95-5.53-24.91-13.49-29.75Z"/>
  <path d="M270.62,573.76c.49,6.95,10.69,16.89,15.81,8.09-9.99,1.24-14.87-13.08-3.66-14.64v3.66c5.18.94,2.94-1.33,4.61-4.49,9.37-17.71,18.54-28.87,38.94-33.01,1.23-.24,13.85.36,10.08-2.71h.01s-.02,0-.02-.01h0c-13.45-2.95-36.28,5.13-45.1,15.55-3.3,3.89-5.53,11.3-9.06,14.98-4,4.17-12.15,4.95-11.62,12.57Z"/>
  <path d="M578.14,140.83c-2.4-.2-8.92-1.72-7.76,2.28,32.47-.06,37.63,16.25,59.31,32.68,10.42,5.31,25.21,7.77,36.03,12.75,5.9,2.71,8.48,7.57,14.32,9.42-14.38-22.74-45.84-15.61-65.1-42.12h.01c-4.94-5.79-8.47-9.79-10.47-17.59-3.68,1.07,1.63,9.41,1.23,9.73-9.01-2.99-17.98-6.34-27.57-7.14Z"/>
  <path d="M761.69,216.26l1.94,3.45,11.29-.84c4.22,8.92-.6,15.36-3.38,23.4,1.51,5.12,18.43,2.07,9.3,21.77-.94,2.04-8.73,11.02-3.89,11.93,5.52,1.05,13.27-14.24,13.59-19.05.32-4.81-4.28-17.02-10.58-15.09,4.29-18.01,5.17-33.06-18.27-25.57Z"/>
  <path d="M613.02,419.74h.02c3.92,2.77,15.76-.51,16.89-4.5,1.45-5.12-4-7.35-4.42-9.64-.72-3.89,4.01-14.35-3.86-16.99-8.54-2.88-12.38,2.73-17.83,3.08-4.35.28-16.49-4.78-23.15-4.89-12.01-.2-27.37,4.95-29.8,17.71.5,4,8.76-6.14,9.8-7.31,6.27-13.48,37.1-4.24,48.07.63l-1.82-4.89c17.59-3.74,11.64.69,14.89,11.31.76,2.47,4.69,4.38,4.28,8.62-.78,7.81-10.19,1.57-13.08,6.86Z"/>
  <path d="M673.85,329c-.46,4.47,3.34,4.16,4.62,5.8,4.17,5.7,8.03,12.95,7.67,20.38,15.88.05.48-20.06-3.61-26.23,1.99-1.79,5.17-3.9,6.75-5.97h0c2.05-2.68,5.75-8.04,2.96-11.05-3.07-3.3-22.06-6.59-21.94-2.44l15.82,6.11c-.6,4.53-11.97,10.42-12.27,13.41Z"/>
  <path d="M525.6,572.37c19.47,4.81,31.23-4.04,45.67-13.4,19.86.09,48.03-3.9,62.48-19.17,1.18-1.38,2.92-2,2.43-4.27-1.51-1.67-9.3,7.59-10.68,8.47-15.21,9.08-40.37,15.03-57.86,12.47-14.04,10.91-49.45,26.2-49.69-3.89-7.87,6.14.26,17.37,7.65,19.78Z"/>
  <path d="M738.6,204.62c-30.54-5.32-67.87-1.95-93.88,15.26,38.63-15.82,75.89-17.98,115.77-6.09-4.38-5.16-15.13-7.81-21.89-9.17Z"/>
  <path d="M573.15,271.46l4.87-1.41c11.8,7.33,11.31,23.06,16.1,33.94,2.61,5.91,5.94,4.14,5.44-1.69-.39-4.5-5.39-19.87-7.62-24.16-15.12-25.34-27.35-9.57-28.87,12.43l10.09-19.11Z"/>
  <path d="M292.5,589.14c8.17-21.81,27.79-41.42,51.19-46.31l-2.36-1.3s1.15-3.55,1.15-3.55c-4.94-1.72-4.89,2.34-6.14,2.94-20.08,5.81-32.53,20.87-45.03,36.66l2.43,2.41c-.93,2.95-11.81,6.34-10.94,8.53,1.88,4.77,8-2.25,8.51-1.82.45.39-1,2.93,1.22,2.44Z"/>
  <path d="M648.96,533.11c11.91-5.98,16.54-24.29,4.14-32.21-4.95-3.17-17.1-6.02-19.38,1.71,15.68-5.81,28.56,16.58,12.55,23.5h0c-2.8,2.32-.84,6.7,2.68,7.01Z"/>
  <path d="M439.12,400.03c-2.64.13-4.88-4.9-11.65-3.14-13.33,3.46-2.38,21.89,1.51,17.99l-2.27-10.09c3.83-6.93,9.17-2.79,14.94-3.38,13.81-2.6,29.36-12.47,43.39-2.38-3.93-12.04-25.72-6.45-35.09-4-2.95.9-8.5,4.88-10.84,5Z"/>
  <path d="M235.4,411.39c-1.74-1.16-2.01,30.97,2.27,25.42v-21.95c12.35.24,19.29,16.2,25,25.58,2.63.51,1.86-1.23,1.86-3.07,0-9.71-17.32-30.51-29.13-25.98Z"/>
  <path d="M488.11,356.45c-.83-2.36-10.01-13.89-12.8-11.03.55,7.91,10.08,7.61,7.07,17.43-4.83,11.97-34.12-3.28-14.38-17.42-29.78,10.67,16.75,44.65,20.11,11.02Z"/>
  <path d="M410.72,331.4c-.62-19.84,11.71-38.51,26.8-50.55-19.32,1.88-42.61,54.06-26.8,50.55Z"/>
  <path d="M437.53,280.85s0,0,0,0c0,0,.01,0,.02,0h-.01Z"/>
  <path d="M744.09,417.4c-9.62,1.83-23.45,12.01-28.73-3.73-4.06-.26-.96,5.01-7.13,5.05l-.17,4.7,7.81-1.24c8.36,11.69,25.95,1.3,36.05-3.64-.21-2.21-6.53-1.38-7.84-1.13Z"/>
  <path d="M275.49,250.97c.06.82,11.31,7.18,13.64,9.14,1.97,1.66,3.42,5.59,5.86,6.68,3.27,1.46,6.89.1,10.2.77,5.83,1.18,10.62,4.23,16.58,3.51-3.14-10.4-18.07-5.48-24.06-8.85h.01c-1.4-3.44-20.82-17.51-22.23-11.25Z"/>
  <path d="M540.44,362.53c-1.5-1.23-1.06-3.84-2.97-3.71-.01,11.44,16.82,12.87,25.23,8.8,2.07-1.01,9.8-9.36,10.68-11.25,4.12-8.86-7.45-14.82-15.2-13.38-.21,4.58,7.28,3.08,9.84,6.59,3.56,4.88-1.6,11.31-5.57,14.11-7.7,5.45-14.91,4.64-22-1.17Z"/>
  <path d="M353.43,444.13c-11.37,6.05-9.2,23.79,5.24,20.46,9.74-2.24,17.16-22.35,3.3-24.11-.33,2.43,1.97,3.17,2.43,5.53,1.47,7.61-5.63,19.83-13.35,13.3-5.42-4.59,1.15-10.35,2.38-15.19Z"/>
  <path d="M288.86,505.07s0,0,.01,0c0,0,0-.01,0-.02h-.01Z"/>
  <path d="M293.87,510.4c16.95,7.68,35.78-21.38,9.62-22.39,5.05,6.3,11.64,9.09,3.23,16.62-6.7,5.99-10.67,2.98-17.84.44-.39,2.66,3.08,4.46,5,5.32Z"/>
  <path d="M333.95,457.52h-.01c-6.96,4.41-28.5-10.21-26.83-2.46,8.35,1.65,15.53,7.39,24.38,6.12-.77,6.37-2.32,11.92,0,18.27-.71.71-7.08-3.24-7.3,0,6.26.49,7.11,5.66,10.35,9.74,3.38.21-.44-13.31-.59-15.22-.4-5.44.27-11.01,0-16.44Z"/>
  <path d="M263.27,446.55c2.31,11.8-7.35,27.22-20.48,22.28-1.34-.13-4.16-1.41-3.9.87,15.03,10.16,34.72-7.15,29.06-22.95h.01l-4.69-.2Z"/>
  <path d="M594.73,310.08c-5.41-1.83-7.33,4.88-10.6,5.84-5.2,1.52-17.32,1.02-18.66-5.84l-2.43.61c-1.86,14.24,32.99,15.5,31.69-.61Z"/>
  <path d="M435.1,425.83c16.51-6.5,32.73-15.62,51.18-13.41-10.6-9.01-42.74,3.34-51.18,13.41Z"/>
  <path d="M175.52,473.39h4.86c-1.06-11.97,9.1-20.29,13.41-30.47-8.08-.18-22.39,26.5-18.27,30.47Z"/>
  <path d="M522.32,443.02c-2.45.3-11.18,1.99-13.24,2.6-4.74,1.43-7.3,10.32-.88,10.7l1.15-6.78c7.87-.34,11.71-5.12,20.06-4.08,5.59.69,12.53,6.37,12.93,12.08,6.47-2.95-4.72-11.75-8.13-13.21-4.03-1.73-7.48-1.86-11.9-1.3Z"/>
  <path d="M483.24,301.54c-8.53,10.18-18.01,7.41-28.64,2.46,9.4,16.07,42.24,5.68,28.64-2.46Z"/>
  <path d="M454.59,303.99s0,0,.01,0c0,0,0-.01-.01-.02h0Z"/>
  <path d="M831.94,193.52h0s.01-.01.01-.01c4.67,5.55,10.51,17.76,14.49,21.46,1.84,3.08,3.8-.26,5.39-1.78.46,1.35-36.11-42.12-26.06-25.08,2.08,2.6,4.79,3.78,6.17,5.41Z"/>
  <path d="M586.61,408.99c-7.91-1.11-18.85-3.39-26,.41,16.49,1.5,33.09,2.1,48.74,7.9-4.42-6.35-15.5-7.29-22.74-8.31Z"/>
  <path d="M401.89,391.96c.89.83.4,5.29,3.34,4.63,16.02-12.21-2.93-13.97-6.68-6.68-1.33,2.57,2.58,1.36,3.33,2.05h0s.01,0,.01,0Z"/>
  <path d="M515.52,466.66c1.88,3.87,19.85,5.17,18.27-.6,0,0-18.27.6-18.27.6Z"/>
  <path d="M228.72,728.24c-7.86,2.61,9.31,20.33,14.48,12.03,3.6-5.76-7.91-14.21-14.48-12.03Z"/>
  <path d="M269.01,709.57c13.8,3.01,2.06-18.95-8.19-14.41-1.45,5.89,1.95,13.04,8.19,14.41Z"/>
  <path d="M58.53,630.58v-4.88c-63.46-54.77-76.26-49.63-10.09-128.92-13.97,33.12-2.37,73.61,28.35,63.12.15,12.3,14.5,35.25,28.04,24.97l-10.66-3.81c-11.33-11.04-9.08-13.68-13.7-25.51-7.62.74-14.48,2.84-21.95-.52-15.26.35-15.08-56.64-.01-64.57,3.69-3.43,7.45-3.6,12.21-4.24,3.3-2.47-2.41-2.19-2.44-3.68,21.94-24.07,67.69-52.35,100.18-63.11,5.24-1.69,11.93-.72,15.55-5.14-32.41-7.24-91.7,41.55-115.15,63.96-2.75,2.71-3.51,7.55-9.12,5.51,8.18-6.55,11.73-16.45,20.05-22.57,3.4-4.58,4.97-11.59,10.4-15.23l-3.63-3.62c31.55-63.11,89.65-125.14,154.41-154.54,6.11-12.32,11.37-27.57,21.88-36.55,1.04-2.53.89-6.57,1.63-9.4,2.16,2.16,13.41,8.54,13.41,1.84,0-1-14.99-9.28-18.17-6.58-2.84,17.95-17.11,30.91-23.8,47.48-82.18,35.9-126.48,115.4-172.54,186.96-9.73,12.92-36.9,47.88-45.65,60.47C15.68,535.22.1,559.12,0,568.19c-.11,10.62,9.91,16.4,19.9,26.35,17.23,17.18,38.63,36.03,38.63,36.03Z"/>
  <path d="M1024.95,12.29c-11.9,7.23-26.61,25.91-26.61,25.91,0,0-82.38-39.91-94.52-35.94-12.14,3.97-3.36,62.54-3.36,62.54v-.04c-.63,11.58,2.21,23.32,4.41,34.59-21.23,15.48-31.34,40.59-45.1,62.06l-78.59-71.29-2.45,1.22c26.15,25.65,55.29,49.19,80.39,75.59-3.97,30.15,26.56,40.8,49.87,46.4,36.58,18.85,74.74,58.73,102.47,88.87,11.47,9.91,22.21,13.75,31.76,26.82,1.1,1.51-.91,4.38,4.81,4.23,3.04-15.27-30.77-29.99-40.26-40.77-24.49-32.08-57.48-55.72-90.13-78.65,14.77,1.17,29.59-1.11,43.85-4.89,8.02,45.15,47.24,98.1,93.85,57.27v-8.53c-35.62,34.59-61.91,10.04-80.65-26-2.44-4.57-8.89-15.57-9.35-20.04-.43-4.05,5.12-5.81,4.68-10.03-29.02,7.14-50.86,14.2-79.83,1.23-13.94-6.24-27.08-15.13-22.91-32.6,5.34-22.37,18.11-40.42,33.25-57,13.76-11.37,12.36-11.85,6.71-27.36-2.19-10.16-2.68-20.26-4.23-30.51h0v.04s-7.63-45.92,1.01-49.89c8.64-3.97,94.99,38.27,94.29,39.68-.62,1.23,39.5-35.04,57.04-39.86V0c-7.92,2.46-22.16,7.26-30.44,12.29Z"/>
</svg>